<mxfile host="app.diagrams.net" agent="Mozilla/5.0 (Windows NT 10.0; Win64; x64) AppleWebKit/537.36 (KHTML, like Gecko) Chrome/127.0.0.0 Safari/537.36 OPR/113.0.0.0" version="24.8.3">
  <diagram name="Página-1" id="3ESBO7DWzuSzCF63NxeR">
    <mxGraphModel dx="1393" dy="1965" grid="1" gridSize="10" guides="1" tooltips="1" connect="1" arrows="1" fold="1" page="1" pageScale="1" pageWidth="827" pageHeight="1169" math="0" shadow="0">
      <root>
        <mxCell id="0" />
        <mxCell id="1" parent="0" />
        <mxCell id="3bNmdEZNeW28TY_EHg6H-3" style="edgeStyle=orthogonalEdgeStyle;rounded=0;orthogonalLoop=1;jettySize=auto;html=1;exitX=1;exitY=0.5;exitDx=0;exitDy=0;entryX=0;entryY=0.5;entryDx=0;entryDy=0;" edge="1" parent="1" source="3bNmdEZNeW28TY_EHg6H-1" target="3bNmdEZNeW28TY_EHg6H-2">
          <mxGeometry relative="1" as="geometry" />
        </mxCell>
        <mxCell id="3bNmdEZNeW28TY_EHg6H-1" value="INICIO" style="ellipse;whiteSpace=wrap;html=1;" vertex="1" parent="1">
          <mxGeometry x="10" y="10" width="120" height="80" as="geometry" />
        </mxCell>
        <mxCell id="3bNmdEZNeW28TY_EHg6H-4" style="edgeStyle=orthogonalEdgeStyle;rounded=0;orthogonalLoop=1;jettySize=auto;html=1;exitX=1;exitY=0.5;exitDx=0;exitDy=0;" edge="1" parent="1" source="3bNmdEZNeW28TY_EHg6H-12" target="3bNmdEZNeW28TY_EHg6H-7">
          <mxGeometry relative="1" as="geometry">
            <mxPoint x="340" y="50" as="targetPoint" />
          </mxGeometry>
        </mxCell>
        <mxCell id="3bNmdEZNeW28TY_EHg6H-2" value="CONSULTAR HISTORICO" style="rounded=1;whiteSpace=wrap;html=1;" vertex="1" parent="1">
          <mxGeometry x="190" y="20" width="120" height="60" as="geometry" />
        </mxCell>
        <mxCell id="3bNmdEZNeW28TY_EHg6H-17" style="edgeStyle=orthogonalEdgeStyle;rounded=0;orthogonalLoop=1;jettySize=auto;html=1;exitX=0.5;exitY=0;exitDx=0;exitDy=0;" edge="1" parent="1" source="3bNmdEZNeW28TY_EHg6H-7" target="3bNmdEZNeW28TY_EHg6H-14">
          <mxGeometry relative="1" as="geometry">
            <mxPoint x="640" y="-90" as="targetPoint" />
            <Array as="points">
              <mxPoint x="640" y="-50" />
              <mxPoint x="641" y="-50" />
            </Array>
          </mxGeometry>
        </mxCell>
        <mxCell id="3bNmdEZNeW28TY_EHg6H-7" value="TIPOS DE HISTORICO" style="swimlane;fontStyle=0;childLayout=stackLayout;horizontal=1;startSize=30;horizontalStack=0;resizeParent=1;resizeParentMax=0;resizeLast=0;collapsible=1;marginBottom=0;whiteSpace=wrap;html=1;" vertex="1" parent="1">
          <mxGeometry x="570" y="-10" width="140" height="120" as="geometry" />
        </mxCell>
        <mxCell id="3bNmdEZNeW28TY_EHg6H-9" value="USUARIOS" style="text;strokeColor=none;fillColor=none;align=left;verticalAlign=middle;spacingLeft=4;spacingRight=4;overflow=hidden;points=[[0,0.5],[1,0.5]];portConstraint=eastwest;rotatable=0;whiteSpace=wrap;html=1;" vertex="1" parent="3bNmdEZNeW28TY_EHg6H-7">
          <mxGeometry y="30" width="140" height="30" as="geometry" />
        </mxCell>
        <mxCell id="3bNmdEZNeW28TY_EHg6H-10" value="ATIVO" style="text;strokeColor=none;fillColor=none;align=left;verticalAlign=middle;spacingLeft=4;spacingRight=4;overflow=hidden;points=[[0,0.5],[1,0.5]];portConstraint=eastwest;rotatable=0;whiteSpace=wrap;html=1;" vertex="1" parent="3bNmdEZNeW28TY_EHg6H-7">
          <mxGeometry y="60" width="140" height="30" as="geometry" />
        </mxCell>
        <mxCell id="3bNmdEZNeW28TY_EHg6H-11" value="DATA" style="text;strokeColor=none;fillColor=none;align=left;verticalAlign=middle;spacingLeft=4;spacingRight=4;overflow=hidden;points=[[0,0.5],[1,0.5]];portConstraint=eastwest;rotatable=0;whiteSpace=wrap;html=1;" vertex="1" parent="3bNmdEZNeW28TY_EHg6H-7">
          <mxGeometry y="90" width="140" height="30" as="geometry" />
        </mxCell>
        <mxCell id="3bNmdEZNeW28TY_EHg6H-13" value="" style="edgeStyle=orthogonalEdgeStyle;rounded=0;orthogonalLoop=1;jettySize=auto;html=1;exitX=1;exitY=0.5;exitDx=0;exitDy=0;" edge="1" parent="1" source="3bNmdEZNeW28TY_EHg6H-2" target="3bNmdEZNeW28TY_EHg6H-12">
          <mxGeometry relative="1" as="geometry">
            <mxPoint x="570" y="65" as="targetPoint" />
            <mxPoint x="310" y="50" as="sourcePoint" />
          </mxGeometry>
        </mxCell>
        <mxCell id="3bNmdEZNeW28TY_EHg6H-12" value="LISTA DE MOVIMENTAÇAO" style="rounded=1;whiteSpace=wrap;html=1;" vertex="1" parent="1">
          <mxGeometry x="370" y="35" width="120" height="60" as="geometry" />
        </mxCell>
        <mxCell id="3bNmdEZNeW28TY_EHg6H-27" style="edgeStyle=orthogonalEdgeStyle;rounded=0;orthogonalLoop=1;jettySize=auto;html=1;exitX=0.5;exitY=1;exitDx=0;exitDy=0;" edge="1" parent="1" source="3bNmdEZNeW28TY_EHg6H-14" target="3bNmdEZNeW28TY_EHg6H-26">
          <mxGeometry relative="1" as="geometry" />
        </mxCell>
        <mxCell id="3bNmdEZNeW28TY_EHg6H-29" style="edgeStyle=orthogonalEdgeStyle;rounded=0;orthogonalLoop=1;jettySize=auto;html=1;exitX=0.5;exitY=0;exitDx=0;exitDy=0;" edge="1" parent="1" source="3bNmdEZNeW28TY_EHg6H-14" target="3bNmdEZNeW28TY_EHg6H-28">
          <mxGeometry relative="1" as="geometry" />
        </mxCell>
        <mxCell id="3bNmdEZNeW28TY_EHg6H-14" value="REALIZAR&lt;div&gt;&amp;nbsp;ALTERAÇOES?&lt;/div&gt;" style="rhombus;whiteSpace=wrap;html=1;direction=south;" vertex="1" parent="1">
          <mxGeometry x="585" y="-150" width="110" height="100" as="geometry" />
        </mxCell>
        <mxCell id="3bNmdEZNeW28TY_EHg6H-21" value="SIM" style="rounded=1;whiteSpace=wrap;html=1;fillColor=#008a00;fontColor=#ffffff;strokeColor=#005700;" vertex="1" parent="1">
          <mxGeometry x="720" y="-110" width="50" height="20" as="geometry" />
        </mxCell>
        <mxCell id="3bNmdEZNeW28TY_EHg6H-22" value="NAO" style="rounded=1;whiteSpace=wrap;html=1;fillColor=#fa6800;fontColor=#000000;strokeColor=#C73500;" vertex="1" parent="1">
          <mxGeometry x="500" y="-110" width="50" height="20" as="geometry" />
        </mxCell>
        <mxCell id="3bNmdEZNeW28TY_EHg6H-26" value="ALERTA INFORMANDO QUE NAO TEM MOVIMENTAÇOES" style="rounded=1;whiteSpace=wrap;html=1;" vertex="1" parent="1">
          <mxGeometry x="320" y="-140" width="140" height="80" as="geometry" />
        </mxCell>
        <mxCell id="3bNmdEZNeW28TY_EHg6H-28" value="EXIBIR OS DATOS RETOMADOS" style="rounded=1;whiteSpace=wrap;html=1;" vertex="1" parent="1">
          <mxGeometry x="820" y="-130" width="120" height="60" as="geometry" />
        </mxCell>
      </root>
    </mxGraphModel>
  </diagram>
</mxfile>
